<?xml version="1.0" encoding="UTF-8" standalone="no"?>
<svg
   id="Layer_1"
   data-name="Layer 1"
   viewBox="0 0 348.01517 196.99"
   version="1.1"
   xml:space="preserve"
   width="348.01517"
   height="196.99001"
   xmlns="http://www.w3.org/2000/svg"
   xmlns:svg="http://www.w3.org/2000/svg"><defs
     id="defs4"><style
       id="style2">.cls-1{fill:#99425b;}.cls-2{fill:#fff;}.cls-3{fill:#e9551d;}.cls-4{fill:#ef7c10;}.cls-5{fill:#f6a307;}.cls-6{fill:#b91d1b;}.cls-7{fill:#020203;}</style></defs><path
     class="cls-3"
     d="M 132.43,25 A 67,67 0 0 1 144.27,62 62.44,62.44 0 0 0 127.81,43.48 72.41,72.41 0 0 1 136.37,79.81 32.55,32.55 0 0 0 122.56,60 c 4.3,10.75 8.43,23.54 2.07,33.22 a 93.11,93.11 0 0 0 -6,-15 81.23,81.23 0 0 1 -10.92,46 59.53,59.53 0 0 0 -8.2,-29.47 126.3,126.3 0 0 1 -5.71,38.43 101.78,101.78 0 0 0 -13.14,-33.15 133.18,133.18 0 0 1 -9.84,28.19 125.09,125.09 0 0 0 -9.87,-28 c -5.64,9.15 -4.66,20.73 -3.44,31.38 A 90.38,90.38 0 0 1 45.87,79.83 34.75,34.75 0 0 0 37.8,98 C 30.16,88.1 31.31,74.3 32.8,61.87 A 61.76,61.76 0 0 0 17.02,81.77 C 15.67,65 23.87,49.14 31.84,34.29 A 60.08,60.08 0 0 1 14.29,50.42 270.55,270.55 0 0 0 24.79,19 23.19,23.19 0 0 1 17.28,29.82 7.66,7.66 0 0 1 16.75,31.89 C 12.16,42.06 0.62,55.51 0,56.69 c 0,0 7.28,-0.82 12.33,-5.51 -7.81,14.92 5.05,42.72 11.21,49.74 -1.18,-3.18 -0.92,-7.67 1.84,-9.67 -1.35,29.05 22.88,46 22.88,46 0,0 -3.32,-6.56 -0.52,-10.25 1.57,8 35.9,19.14 35.9,35.14 0,-16.23 36.92,-28 40.76,-50.29 0.62,0 1.57,6.59 -0.33,9 17.58,-10.33 29.18,-43.12 27.9,-52.6 2.76,3 4.37,9.78 4.37,9.78 0,0 10.59,-24.5 -0.33,-45.12 C 151.88,25 147.94,21.5 144.5,19 c 1.11,5 3.64,9.58 6.13,14.07 A 26.36,26.36 0 0 0 132.43,25 Z"
     id="path10" /><path
     class="cls-4"
     d="M 78.56,22 C 40.72,21.08 26.2,9.63 26.2,0 c 0,17.83 -8.23,24 -8.92,29.83 A 23.19,23.19 0 0 0 24.79,19 270.55,270.55 0 0 1 14.29,50.38 60.08,60.08 0 0 0 31.84,34.29 C 23.87,49.14 15.67,65 17.02,81.77 A 61.35,61.35 0 0 1 32.79,61.9 c -1.48,12.43 -2.59,26.26 5,36.23 a 34.7,34.7 0 0 1 8.15,-18.2 90.45,90.45 0 0 0 11.61,51.84 c -1.18,-10.65 -2.2,-22.23 3.44,-31.38 a 124.08,124.08 0 0 1 9.87,28 133.07,133.07 0 0 0 9.84,-28.2 101.58,101.58 0 0 1 13.15,33.15 126.2,126.2 0 0 0 5.7,-38.43 59.88,59.88 0 0 1 8.2,29.48 81.17,81.17 0 0 0 10.92,-46 94.68,94.68 0 0 1 6,15 c 6.36,-9.7 2.23,-22.49 -2.06,-33.21 A 32.7,32.7 0 0 1 136.4,80 a 72.41,72.41 0 0 0 -8.56,-36.33 62.44,62.44 0 0 1 16.46,18.52 67.06,67.06 0 0 0 -11.83,-37 26.13,26.13 0 0 1 18.19,8.07 c -2.49,-4.49 -5,-9.08 -6.13,-14.07 -5.54,-3.93 -9.93,-5.44 -12.43,-19 C 132.07,9.63 116.43,22.91 78.56,22 Z"
     id="path12" /><path
     class="cls-5"
     d="m 57.94,28.22 c -6.69,5.81 -7.93,18.3 -6.65,27 a 21.76,21.76 0 0 1 6.25,-10.6 c -1.67,5 0.17,10.46 2.17,15.38 2.39,5.9 5.08,11.74 9,16.72 a 35.1,35.1 0 0 1 1.37,-20.53 c 0,2.46 1.32,4.73 2.5,6.89 a 119.6,119.6 0 0 1 11.8,31.58 c 5.34,-10.63 3.61,-23.38 7,-34.76 4.85,4.85 6.06,12.13 6.82,18.92 a 49.92,49.92 0 0 0 4.59,-28.53 29,29 0 0 1 7.9,12.71 46.24,46.24 0 0 0 -1,-23.38 c -1.48,-4.75 -4.07,-9.6 -8.63,-11.74 a 18.79,18.79 0 0 0 -5.54,-1.44 c -3.28,-0.46 -6.59,-0.72 -9.9,-1 A 64.1,64.1 0 0 0 73.39,25.34 21.75,21.75 0 0 0 62.14,29.7"
     id="path14" /><path
     class="cls-6"
     d="M 58.94,27.11 C 57.05,44 93.28,54.85 102.4,28.55 105.22,20.42 59.38,22.78 58.94,27.11 Z"
     id="path16" /><path
     class="cls-2"
     d="m 61.74,33.34 c 0,2.66 37.25,1.77 37.18,-0.66 0,-0.52 0.26,-6.13 0.3,-6.75 -10.46,0.56 -28.36,0.29 -37.51,3.08 v 4.33 z"
     id="path18" /><path
     class="cls-5"
     d="m 80.3,20.36 c 6.59,6.85 41.41,8.06 50.3,-2.53 -6.07,5.08 -14.14,4.56 -16.89,3.54 a 7.67,7.67 0 0 0 5.64,-5.9 C 104.17,30.78 99.71,4.52 80.5,18.55 64.63,7 54.2,23.37 42.1,17.7 l 5.15,3.67 c 0,0 -7.58,5 -16.89,-3.54 a 21.39,21.39 0 0 0 4.23,4.69 C 47.57,27 74.13,25.27 80.3,20.36 Z"
     id="path20" /><path
     class="cls-3"
     d="m 80.5,26.42 c 11.67,6.49 40.42,6.2 50.1,-8.56 v 0 c -8.89,10.56 -43.71,9.35 -50.3,2.5 -6.17,4.91 -32.73,6.64 -45.71,2.16 12.1,10.07 35.61,9.64 45.91,3.9 z"
     id="path22" /><path
     class="cls-3"
     d="m 84.46,156.66 c -6.75,3.77 -15.9,24.2 1.31,40.33 -1.31,-15.15 14.3,-23.81 -1.31,-40.33"
     id="path24" /><path
     class="cls-4"
     d="m 84.07,156.66 c -3.31,3.77 -6.72,24.2 1.74,40.33 -0.66,-15.15 5.9,-23.81 -1.74,-40.33"
     id="path26" /><path
     class="cls-7"
     d="m 64.53,153.41 c 1.34,-2.65 18.72,2.66 18.72,2.66 0,0 15.31,-6.1 18.1,-5.15 2.79,0.95 1.87,15.71 0,15.71 -1.87,0 -18.07,-8.27 -18.07,-8.27 0,0 -15.64,8.5 -17.18,8.27 C 64.56,166.4 63.74,155 64.53,153.41 Z"
     id="path28" /><g
     id="g1"
     transform="translate(173.58707,64.639053)"><g
       transform="matrix(3.0503059,0,0,3.0503059,-24.623104,-79.432498)"
       id="g10"><g
         id="color"><path
           fill="#f4aa41"
           d="m 24.473,15.1583 -5.0799,1.9352 -7.2963,7.901 -4.1377,10.5005 1.291,5.3405 c 1.2554,3.7911 3.3357,6.4338 7.0626,9.2506 l 2.6874,-2.5839 c 0,0 3.8218,7.7098 10.7384,8.9598 0,0 10.2616,1.936 15.5949,-0.8765 1.4899,-0.7857 2.5141,-1.8291 3.2921,-2.5939 2.0702,-2.0351 3.033,-3.5201 4.5413,-5.2395 v 0 c 0,0 1.6701,1.8077 1.6701,1.8077 l 1.838,-0.0557 5.0169,-7.2292 2.0032,-5.0703 -0.0215,-4.255 L 61.5,27.3355 56.6667,19.9188 c 0,0 -2.6368,-4.2558 -8.1667,-3.9167 0,0 -6.5,-4.8333 -11.8333,-4.0833 -5.3333,0.75 -3.6104,-0.6772 -12.1937,3.2395 z"
           id="path1" /><polygon
           fill="#ea5a47"
           points="40.4429,57.1116 41.1441,52.9335 41.9167,49.3158 39.9167,49.5658 36,46.7324 32.9167,49.1491 30.4167,49.1491 30.9413,53.0386 31.362,56.0539 32.1667,58.3991 35,59.8991 39.5833,59.3158 "
           id="polygon1" /><polygon
           fill="#3f3f3f"
           points="30.9167,40.6688 33.0833,41.9188 34.3333,42.4188 38.6667,42.5855 41.5833,40.3355 39.8333,37.0855 32.5,36.9188 "
           id="polygon2" /></g><g
         id="line"><path
           d="m 29.5059,30.1088 c 0,0 -1.8051,1.2424 -2.7484,0.6679 -0.9434,-0.5745 -1.2424,-1.8051 -0.6679,-2.7484 0.5745,-0.9433 1.805,-1.2424 2.7484,-0.6679 0.9434,0.5745 0.6679,2.7484 0.6679,2.7484 z"
           id="path2" /><path
           fill="none"
           stroke="#000000"
           stroke-linecap="round"
           stroke-linejoin="round"
           stroke-width="2"
           d="m 33.1089,37.006 h 6.1457 c 0.4011,0 0.7634,0.2397 0.9203,0.6089 l 1.1579,2.7245 -2.1792,1.1456 c -0.6156,0.3236 -1.3654,-0.0645 -1.4567,-0.754"
           id="path3" /><path
           fill="none"
           stroke="#000000"
           stroke-linecap="round"
           stroke-linejoin="round"
           stroke-width="2"
           d="m 34.7606,40.763 c -0.1132,0.6268 -0.7757,0.9895 -1.3647,0.7471 l -2.3132,-0.952 1.0899,-2.9035 c 0.1465,-0.3901 0.5195,-0.6486 0.9362,-0.6486"
           id="path4" /><path
           fill="none"
           stroke="#000000"
           stroke-linecap="round"
           stroke-linejoin="round"
           stroke-width="2"
           d="m 30.4364,50.0268 c 0,0 -0.7187,8.7934 3.0072,9.9375 2.6459,0.8125 5.1497,0.5324 6.0625,-0.25 0.875,-0.75 2.6323,-4.4741 1.8267,-9.6875"
           id="path5" /><path
           d="m 44.2636,30.1088 c 0,0 1.805,1.2424 2.7484,0.6679 0.9434,-0.5745 1.2424,-1.8051 0.6679,-2.7484 -0.5745,-0.9434 -1.805,-1.2424 -2.7484,-0.6679 -0.9434,0.5745 -0.6679,2.7484 -0.6679,2.7484 z"
           id="path6" /><path
           fill="none"
           stroke="#000000"
           stroke-linecap="round"
           stroke-linejoin="round"
           stroke-width="2"
           d="m 25.6245,42.8393 c -0.475,3.6024 2.2343,5.7505 4.2847,6.8414 1.1968,0.6367 2.6508,0.5182 3.7176,-0.3181 l 2.581,-2.0233 2.581,2.0233 c 1.0669,0.8363 2.5209,0.9548 3.7176,0.3181 2.0504,-1.0909 4.7597,-3.239 4.2847,-6.8414"
           id="path7" /><path
           fill="none"
           stroke="#000000"
           stroke-linecap="round"
           stroke-linejoin="round"
           stroke-width="2"
           d="m 19.9509,28.3572 c -2.3166,5.1597 -0.5084,13.0249 0.119,15.3759 0.122,0.4571 0.0755,0.9355 -0.1271,1.3631 l -1.9874,4.1937 c -0.623,1.3146 -2.3934,1.5533 -3.331,0.4409 C 11.4323,45.9437 6.066,38.3409 8.0758,33.0448 15.1383,14.4344 23.9435,14.9019 23.9435,14.9019 c 2.8453,-1.9336 13.1042,-6.9375 24.8125,0.875 0,0 8.6323,-1.7175 14.9375,16.9375 1.8036,5.3362 -3.4297,12.8668 -6.5506,16.6442 -0.9312,1.127 -2.7162,0.8939 -3.3423,-0.4272 l -1.9741,-4.1656 c -0.2026,-0.4275 -0.2491,-0.906 -0.1271,-1.3631 0.6275,-2.3509 2.4356,-10.2161 0.119,-15.3759"
           id="path8" /><path
           fill="none"
           stroke="#000000"
           stroke-linecap="round"
           stroke-linejoin="round"
           stroke-width="2"
           d="m 52.6309,46.4628 c 0,0 -3.0781,6.7216 -7.8049,8.2712"
           id="path9" /><path
           fill="none"
           stroke="#000000"
           stroke-linecap="round"
           stroke-linejoin="round"
           stroke-width="2"
           d="m 19.437,46.969 c 0,0 3.0781,6.0823 7.8049,7.632"
           id="path10-0" /><line
           x1="36.207802"
           x2="36.207802"
           y1="47.339298"
           y2="44.309299"
           fill="none"
           stroke="#000000"
           stroke-linecap="round"
           stroke-linejoin="round"
           stroke-width="2"
           id="line10" /></g></g></g></svg>
